<!DOCTYPE svg PUBLIC "-//W3C//DTD SVG 20010904//EN" "http://www.w3.org/TR/2001/REC-SVG-20010904/DTD/svg10.dtd">
<svg version="1.0" xmlns="http://www.w3.org/2000/svg" width="1600px" height="1566px" viewBox="0 0 16000 15660" preserveAspectRatio="xMidYMid meet">
<g id="layer101" fill="#e22227" stroke="none">
 <path d="M0 7830 l0 -7830 8000 0 8000 0 0 7830 0 7830 -8000 0 -8000 0 0 -7830z"/>
 </g>
<g id="layer102" fill="#d82730" stroke="none">
 <path d="M0 7830 l0 -7830 5515 0 c5475 0 5515 0 5515 20 0 10 -8 24 -18 29 -10 5 -29 31 -42 56 -13 26 -30 50 -37 52 -7 3 -13 11 -13 19 0 7 -8 18 -18 23 -10 5 -29 31 -42 56 -13 26 -30 50 -37 52 -7 3 -13 12 -13 19 0 8 -7 17 -15 20 -8 4 -15 13 -15 20 0 8 -7 17 -15 20 -8 4 -15 12 -15 20 0 7 -6 17 -13 21 -6 4 -18 20 -26 35 -7 14 -25 39 -40 55 -14 16 -32 41 -40 56 -8 14 -33 48 -57 74 -24 26 -44 54 -44 61 0 7 -7 15 -15 18 -8 4 -15 11 -15 18 0 6 -14 24 -30 40 -16 15 -36 43 -45 62 -9 19 -20 34 -25 34 -6 0 -10 7 -10 15 0 9 -7 18 -15 21 -8 4 -15 13 -15 20 0 8 -7 17 -15 20 -8 4 -15 12 -15 18 0 7 -18 32 -40 56 -22 24 -40 49 -40 57 0 7 -7 16 -15 19 -8 4 -15 12 -15 19 0 6 -11 23 -24 37 -12 14 -26 33 -29 42 -4 9 -11 16 -17 16 -5 0 -10 7 -10 15 0 9 -7 18 -15 21 -8 4 -15 12 -15 19 0 6 -11 23 -24 37 -12 14 -26 33 -29 42 -4 9 -11 16 -17 16 -5 0 -10 7 -10 15 0 9 -7 18 -15 21 -8 4 -15 12 -15 20 0 7 -6 17 -13 21 -6 4 -19 21 -27 36 -18 35 -48 53 -63 38 -6 -6 -17 -11 -23 -11 -7 0 -25 -5 -41 -12 -15 -6 -32 -12 -38 -13 -5 0 -23 -7 -40 -14 -16 -7 -50 -17 -75 -23 -25 -6 -52 -13 -60 -16 -8 -3 -20 -4 -27 -3 -6 1 -14 -3 -18 -8 -3 -6 -12 -8 -19 -5 -8 3 -17 0 -21 -5 -3 -6 -11 -9 -16 -5 -5 3 -16 1 -24 -6 -7 -6 -29 -12 -47 -12 -18 0 -38 -5 -44 -9 -6 -5 -33 -12 -60 -15 -27 -3 -54 -10 -61 -16 -7 -5 -17 -7 -23 -3 -6 4 -17 2 -23 -4 -12 -10 -62 -20 -117 -24 -14 -1 -30 -6 -37 -10 -6 -4 -18 -4 -27 -1 -9 3 -23 1 -31 -6 -8 -6 -19 -9 -25 -5 -6 4 -17 2 -24 -4 -8 -7 -38 -13 -67 -15 -30 -2 -62 -7 -71 -11 -9 -4 -22 -4 -27 0 -6 3 -19 1 -30 -4 -11 -6 -50 -13 -88 -16 -37 -4 -84 -8 -103 -11 -184 -23 -325 -34 -475 -38 -60 -1 -117 -5 -126 -9 -14 -7 -260 -4 -569 7 -169 6 -307 16 -410 31 -25 4 -58 7 -74 6 -16 0 -34 3 -40 8 -6 4 -34 9 -63 9 -29 0 -61 6 -72 11 -11 6 -26 8 -35 5 -8 -3 -21 -2 -28 2 -7 5 -24 10 -38 11 -61 6 -76 9 -87 16 -7 5 -17 6 -22 2 -5 -3 -13 0 -16 6 -4 6 -18 8 -30 5 -13 -3 -27 -1 -30 4 -4 6 -16 8 -26 5 -11 -4 -25 -3 -32 2 -7 5 -25 10 -41 11 -16 1 -35 7 -42 13 -7 6 -18 8 -24 4 -6 -4 -16 -3 -23 2 -7 5 -25 10 -41 11 -16 1 -42 9 -59 17 -16 8 -34 12 -39 9 -5 -3 -15 -1 -23 6 -7 6 -24 12 -37 14 -13 1 -30 6 -37 10 -7 4 -15 6 -18 3 -6 -7 -104 22 -121 35 -7 6 -15 8 -18 5 -3 -3 -23 3 -44 14 -20 11 -52 21 -69 24 -18 2 -38 8 -44 13 -7 5 -37 17 -67 26 -30 9 -63 22 -73 27 -11 6 -21 8 -24 5 -3 -3 -22 3 -42 13 -20 10 -47 23 -61 29 -14 5 -41 17 -62 26 -20 9 -41 16 -48 16 -6 0 -31 11 -56 25 -25 14 -51 25 -59 25 -8 0 -31 11 -51 25 -20 14 -43 25 -51 25 -12 0 -151 70 -178 90 -5 4 -22 10 -36 13 -14 4 -42 18 -63 32 -20 14 -43 25 -50 25 -7 0 -21 9 -31 20 -10 11 -26 20 -35 20 -10 0 -24 7 -31 16 -8 9 -34 25 -59 36 -25 11 -49 26 -53 34 -4 8 -13 14 -18 14 -6 0 -25 11 -42 24 -18 13 -58 38 -89 55 -31 17 -68 41 -82 54 -13 12 -37 29 -53 37 -15 8 -32 21 -36 27 -4 7 -14 13 -21 13 -8 0 -24 11 -37 25 -13 13 -29 25 -36 25 -6 0 -24 14 -40 30 -15 17 -33 30 -39 30 -7 0 -14 7 -18 15 -3 8 -12 15 -20 15 -7 0 -16 7 -20 15 -3 8 -12 15 -20 15 -7 0 -16 7 -20 15 -3 8 -12 15 -20 15 -8 0 -24 14 -36 30 -12 17 -27 30 -33 30 -7 0 -18 9 -25 20 -7 11 -18 20 -26 20 -7 0 -26 16 -40 35 -15 19 -33 35 -40 35 -7 0 -27 18 -45 40 -17 22 -38 40 -45 40 -7 0 -41 32 -75 70 -35 39 -68 70 -75 70 -13 0 -136 121 -136 135 0 5 -34 41 -75 81 -41 40 -75 77 -75 82 0 6 -22 29 -50 52 -27 23 -50 46 -50 50 0 5 -23 32 -50 61 -28 29 -50 58 -50 65 0 8 -11 21 -25 30 -13 8 -36 35 -50 60 -14 24 -34 48 -45 54 -11 6 -20 16 -20 23 0 7 -14 25 -30 41 -17 16 -30 34 -30 40 0 7 -13 26 -30 44 -16 18 -30 38 -30 43 0 5 -7 12 -15 15 -8 4 -15 12 -15 20 0 7 -6 17 -13 21 -6 4 -18 20 -26 36 -8 15 -30 44 -48 65 -18 20 -33 40 -33 45 0 11 -72 117 -79 117 -7 0 -41 54 -41 65 0 4 6 2 14 -4 8 -6 18 -11 22 -10 5 1 26 -5 46 -15 21 -9 50 -18 65 -19 16 -2 37 -8 48 -14 11 -6 54 -18 95 -27 41 -10 82 -20 90 -24 8 -3 23 -6 32 -7 10 -1 24 -8 33 -15 8 -7 27 -14 42 -15 16 -1 44 -9 63 -18 19 -8 62 -21 95 -28 33 -7 65 -16 71 -20 5 -5 26 -10 45 -13 19 -2 49 -12 67 -21 18 -9 39 -14 47 -11 8 3 17 1 20 -4 7 -11 96 -39 142 -44 17 -3 39 -9 49 -14 25 -12 95 -35 114 -37 9 0 21 -5 28 -9 7 -4 16 -5 19 -2 4 3 18 -1 31 -10 14 -9 37 -18 51 -19 14 -1 40 -8 56 -15 17 -6 40 -13 53 -14 12 -2 25 -6 29 -9 3 -4 16 -7 28 -7 11 0 25 -4 30 -9 11 -9 145 -51 180 -56 11 -1 34 -8 50 -14 17 -7 40 -14 53 -15 12 -2 25 -6 29 -9 3 -4 16 -7 28 -7 11 0 25 -4 30 -9 11 -9 145 -51 180 -56 11 -1 33 -7 48 -14 16 -6 50 -16 75 -22 26 -6 62 -18 80 -26 18 -8 39 -12 47 -10 7 3 21 0 31 -8 11 -7 64 -25 119 -40 55 -15 117 -33 138 -41 21 -8 42 -12 47 -9 5 3 12 0 15 -6 4 -5 13 -8 20 -5 7 2 23 -2 35 -11 12 -9 34 -16 48 -18 15 -1 37 -7 49 -13 12 -7 36 -14 52 -15 17 -2 34 -7 38 -10 3 -4 16 -7 28 -7 11 0 25 -4 30 -9 11 -9 242 -81 278 -85 12 -2 29 -6 37 -9 8 -3 25 -7 38 -10 l22 -5 0 225 0 225 30 -7 c17 -4 36 -2 43 4 7 5 33 10 57 11 86 1 95 2 107 12 7 6 20 7 29 4 9 -4 23 -1 30 5 8 6 25 8 38 5 14 -3 28 -2 31 4 3 6 17 7 30 4 12 -3 26 -1 29 5 4 5 13 8 20 5 8 -3 17 -1 20 5 4 6 13 8 21 4 9 -3 21 0 29 6 7 6 26 12 42 13 16 1 34 6 41 10 6 5 26 10 43 10 17 1 33 5 36 10 3 4 9 6 14 3 5 -3 21 0 37 6 15 7 33 13 38 14 6 1 12 3 15 4 3 2 14 4 25 5 30 4 99 27 110 37 5 5 18 9 30 9 11 0 29 7 39 15 10 8 23 12 27 9 5 -3 19 2 33 11 13 9 39 18 57 20 17 3 39 11 48 19 15 13 53 28 76 31 24 3 109 42 285 130 69 35 145 74 170 86 25 12 52 26 60 30 8 5 34 17 58 28 23 11 42 25 42 30 0 6 8 11 18 11 10 0 23 5 29 11 13 13 47 33 81 48 12 6 22 13 22 17 0 3 -20 32 -45 64 -25 32 -45 63 -45 68 0 5 -11 20 -24 34 -12 14 -26 33 -29 42 -4 9 -11 16 -17 16 -5 0 -10 7 -10 15 0 8 -9 19 -20 25 -11 6 -20 16 -20 23 0 7 -12 23 -25 36 -14 13 -25 29 -25 37 0 8 -9 19 -20 26 -11 7 -20 19 -20 26 0 7 -7 15 -15 18 -8 4 -15 12 -15 18 0 7 -20 35 -45 62 -25 27 -45 54 -45 62 0 7 -7 15 -15 18 -8 4 -15 13 -15 20 0 8 -7 17 -15 20 -8 4 -15 12 -15 19 0 7 -13 27 -29 44 -16 17 -31 38 -35 46 -3 8 -10 15 -16 15 -5 0 -10 6 -10 13 0 6 -14 25 -30 41 -17 16 -30 34 -30 40 0 6 -12 22 -25 35 -14 13 -25 28 -25 35 0 7 -16 29 -35 50 -19 21 -35 43 -35 48 0 5 -7 11 -15 14 -8 4 -15 13 -15 20 0 8 -7 17 -15 20 -8 4 -15 13 -15 20 0 8 -7 17 -15 20 -8 4 -15 12 -15 20 0 7 -8 18 -18 23 -10 5 -29 31 -42 57 -14 25 -32 52 -42 58 -10 6 -18 16 -18 23 0 6 -8 18 -18 25 -22 16 -112 133 -112 146 0 5 -11 21 -25 36 -14 15 -25 29 -25 32 0 2 1368 4 3040 4 2606 0 3040 -2 3040 -14 0 -8 -41 -146 -91 -308 -132 -427 -256 -827 -374 -1208 -57 -184 -174 -562 -260 -840 -86 -278 -183 -593 -216 -700 -33 -107 -65 -206 -72 -220 -6 -14 -12 -29 -13 -35 0 -5 -6 -23 -13 -40 -20 -52 -22 -59 -27 -93 -2 -18 -10 -43 -16 -55 -7 -12 -13 -26 -14 -32 0 -5 -6 -23 -13 -40 -7 -16 -14 -41 -16 -55 -2 -14 -5 -25 -6 -25 -1 0 -3 -9 -4 -20 -3 -26 -25 -97 -35 -110 -10 -14 -33 -85 -36 -116 -2 -14 -9 -39 -15 -55 -7 -16 -13 -37 -14 -46 -1 -9 -10 -33 -19 -53 -10 -20 -19 -46 -20 -58 -3 -21 -8 -37 -23 -74 -4 -10 -8 -22 -8 -28 -1 -5 -5 -17 -8 -25 -19 -44 -37 -104 -32 -108 3 -3 0 -11 -5 -17 -6 -7 -13 -30 -16 -51 -2 -21 -9 -43 -14 -48 -6 -6 -10 -19 -10 -31 0 -12 -5 -26 -10 -31 -6 -6 -12 -25 -15 -42 -5 -40 -24 -103 -37 -119 -5 -7 -7 -16 -4 -21 3 -5 -2 -22 -10 -38 -9 -16 -17 -42 -19 -57 -5 -35 -45 -158 -57 -173 -5 -7 -11 -26 -13 -44 -2 -18 -11 -48 -20 -66 -9 -19 -18 -48 -20 -65 -2 -17 -11 -47 -20 -65 -9 -19 -18 -51 -21 -71 -2 -20 -11 -48 -20 -60 -8 -13 -12 -28 -9 -34 4 -5 -1 -21 -10 -35 -9 -13 -14 -28 -11 -32 3 -5 -2 -21 -9 -36 -8 -16 -13 -32 -10 -36 3 -5 1 -11 -5 -15 -5 -3 -10 -16 -10 -28 0 -12 -6 -33 -13 -48 -24 -45 -46 -119 -40 -134 4 -13 320 -15 2479 -15 l2474 0 0 7830 0 7830 -8000 0 -8000 0 0 -7830z"/>
 </g>
<g id="layer103" fill="#56b049" stroke="none">
 <path d="M0 7830 l0 -7830 5516 0 c4717 0 5515 2 5511 14 -3 8 -217 301 -474 652 -258 352 -502 684 -543 739 -40 55 -76 104 -80 108 -4 4 -74 -13 -156 -38 -509 -158 -1098 -256 -1722 -287 -413 -20 -910 7 -1319 72 -1524 242 -2795 1003 -3797 2274 -161 204 -405 551 -395 560 4 3 80 -19 534 -154 116 -34 275 -81 355 -105 80 -24 246 -73 370 -110 124 -37 290 -86 370 -110 252 -75 1225 -364 1475 -439 l240 -72 3 222 2 222 78 7 c42 3 145 17 227 31 540 88 1082 295 1627 621 l58 34 -570 758 c-314 416 -570 760 -570 764 0 4 1368 7 3040 7 2606 0 3040 -2 3040 -14 0 -8 -41 -146 -91 -308 -132 -427 -256 -827 -374 -1208 -90 -291 -278 -899 -475 -1535 -32 -104 -100 -323 -150 -485 -51 -162 -138 -446 -195 -630 -96 -310 -199 -644 -404 -1305 -45 -143 -81 -266 -81 -272 0 -10 502 -13 2475 -13 l2475 0 0 7830 0 7830 -8000 0 -8000 0 0 -7830z"/>
 </g>
<g id="layer104" fill="#336db3" stroke="none">
 <path d="M0 7830 l0 -7830 5516 0 c4717 0 5515 2 5511 14 -3 8 -217 301 -474 652 -258 352 -502 684 -543 739 -40 55 -76 104 -80 108 -4 4 -74 -13 -156 -38 -509 -158 -1098 -256 -1722 -287 -413 -20 -910 7 -1319 72 -1524 242 -2795 1003 -3797 2274 -161 204 -405 551 -395 560 4 3 80 -19 534 -154 116 -34 275 -81 355 -105 80 -24 246 -73 370 -110 124 -37 290 -86 370 -110 252 -75 1225 -364 1475 -439 l240 -72 3 222 2 222 78 7 c42 3 145 17 227 31 540 88 1082 295 1627 621 l58 34 -570 758 c-314 416 -570 760 -570 764 0 4 1368 7 3040 7 2606 0 3040 -2 3040 -14 0 -8 -41 -146 -91 -308 -132 -427 -256 -827 -374 -1208 -90 -291 -278 -899 -475 -1535 -32 -104 -100 -323 -150 -485 -51 -162 -138 -446 -195 -630 -96 -310 -199 -644 -404 -1305 -45 -143 -81 -266 -81 -272 0 -10 502 -13 2475 -13 l2475 0 0 7830 0 7830 -5516 0 c-4817 0 -5515 -2 -5511 -15 6 -14 1069 -1469 1092 -1493 10 -11 38 -5 161 33 672 209 1523 317 2269 287 891 -36 1614 -208 2398 -571 100 -46 357 -185 472 -254 635 -385 1178 -867 1671 -1487 186 -234 432 -582 415 -588 -9 -3 -352 97 -1076 313 -99 30 -425 126 -725 215 -544 161 -724 214 -1257 373 l-283 84 0 -222 0 -223 -77 -7 c-570 -52 -1250 -289 -1831 -637 -57 -34 -80 -53 -74 -61 5 -7 214 -284 464 -617 250 -333 503 -668 561 -745 59 -77 107 -143 107 -148 0 -4 -1288 -5 -2862 -2 -1575 2 -2923 4 -2997 4 -161 -1 -221 6 -221 27 0 32 207 671 405 1249 70 204 185 541 257 750 281 821 408 1219 408 1278 0 18 -1 19 -26 2 -14 -9 -27 -15 -29 -13 -2 2 5 28 15 58 10 30 96 305 190 610 167 539 288 932 465 1500 47 151 85 281 85 288 0 9 -502 12 -2475 12 l-2475 0 0 -7830z"/>
 </g>
<g id="layer105" fill="#f1861a" stroke="none">
 <path d="M0 10260 c0 -2970 2 -5400 5 -5400 5 0 314 216 1065 745 124 87 283 199 353 248 108 76 128 93 124 111 -3 12 -24 80 -47 151 -144 456 -235 949 -276 1495 -20 261 -14 806 10 1050 19 187 60 468 87 605 315 1553 1205 2817 2669 3792 58 38 126 82 152 97 54 31 19 -67 273 756 234 754 355 1144 450 1450 47 151 85 281 85 288 0 9 -502 12 -2475 12 l-2475 0 0 -5400z"/>
 <path d="M4973 15645 c6 -14 1069 -1469 1092 -1493 10 -11 38 -5 161 33 672 209 1523 317 2269 287 891 -36 1614 -208 2398 -571 100 -46 357 -185 472 -254 635 -385 1178 -867 1671 -1487 186 -234 432 -582 415 -588 -9 -3 -352 97 -1076 313 -99 30 -425 126 -725 215 -544 161 -724 214 -1257 373 l-283 84 0 -222 0 -223 -78 -7 c-569 -52 -1249 -289 -1830 -637 -57 -34 -80 -53 -74 -61 5 -7 214 -284 464 -617 250 -333 503 -668 561 -745 59 -77 107 -143 107 -147 0 -5 -1272 -8 -2828 -8 l-2827 0 8 -117 c31 -461 173 -886 470 -1413 79 -140 223 -378 242 -398 9 -10 158 93 741 514 401 290 750 543 777 562 l47 34 0 -2762 0 -2762 78 7 c42 3 145 17 227 31 540 88 1082 295 1627 621 l58 34 -570 758 c-314 416 -570 760 -570 764 0 4 1368 7 3040 7 2606 0 3040 -2 3040 -14 0 -8 -41 -146 -91 -308 -132 -427 -256 -827 -374 -1208 -90 -291 -278 -899 -475 -1535 -32 -104 -100 -323 -150 -485 -51 -162 -138 -446 -195 -630 -96 -310 -199 -644 -404 -1305 -45 -143 -81 -266 -81 -272 0 -10 502 -13 2475 -13 l2475 0 0 7830 0 7830 -5516 0 c-4817 0 -5515 -2 -5511 -15z"/>
 <path d="M7 4844 c-4 -4 -7 -1096 -7 -2426 l0 -2418 5516 0 c4717 0 5515 2 5511 14 -3 8 -217 301 -474 652 -258 352 -502 684 -543 739 -40 55 -76 104 -80 108 -4 4 -74 -13 -156 -38 -682 -212 -1515 -317 -2271 -287 -863 34 -1618 211 -2343 547 -969 449 -1825 1193 -2494 2165 -58 85 -116 167 -129 182 -18 22 -62 38 -267 98 -255 74 -488 143 -795 235 -99 30 -463 138 -810 241 -347 103 -635 188 -641 191 -5 2 -13 0 -17 -3z"/>
 </g>
<g id="layer106" fill="#ffffff" stroke="none">
 <path d="M0 10260 c0 -2970 2 -5400 5 -5400 5 0 314 216 1065 745 124 87 283 199 353 248 108 76 128 93 124 111 -3 12 -24 80 -47 151 -144 456 -235 949 -276 1495 -20 261 -14 806 10 1050 19 187 60 468 87 605 315 1553 1205 2817 2669 3792 58 38 126 82 152 97 54 31 19 -67 273 756 234 754 355 1144 450 1450 47 151 85 281 85 288 0 9 -502 12 -2475 12 l-2475 0 0 -5400z"/>
 <path d="M4973 15645 c6 -14 1069 -1469 1092 -1493 10 -11 38 -5 161 33 672 209 1523 317 2269 287 891 -36 1614 -208 2398 -571 236 -109 586 -316 842 -496 613 -432 1208 -1055 1660 -1737 l70 -105 140 -42 c189 -57 301 -90 995 -296 799 -237 1003 -298 1210 -360 96 -29 178 -50 183 -48 4 2 7 1093 7 2424 l0 2419 -5516 0 c-4817 0 -5515 -2 -5511 -15z"/>
 <path d="M10005 12103 c-617 -75 -1229 -291 -1803 -635 -57 -34 -80 -53 -74 -61 5 -7 214 -284 464 -617 250 -333 503 -668 561 -745 59 -77 107 -143 107 -147 0 -5 -1272 -8 -2828 -8 l-2827 0 8 -117 c31 -461 173 -886 470 -1413 79 -140 223 -378 242 -398 9 -10 158 93 741 514 401 290 750 543 777 562 l47 34 0 -2762 0 -2762 78 7 c42 3 145 17 227 31 540 88 1082 295 1627 621 l58 34 -570 758 c-314 416 -570 760 -570 764 0 4 1267 7 2815 7 l2815 0 0 38 c0 49 -34 273 -60 392 -101 468 -280 909 -563 1383 -38 65 -73 120 -78 122 -4 3 -95 -57 -201 -134 -106 -77 -454 -328 -773 -559 l-580 -419 -3 2759 -2 2758 -38 -1 c-20 -1 -50 -4 -67 -6z"/>
 <path d="M15225 10265 c-417 -294 -763 -539 -769 -545 -5 -5 7 -57 32 -137 142 -442 232 -909 284 -1468 17 -186 17 -852 0 -1045 -86 -958 -358 -1781 -840 -2550 -87 -139 -108 -170 -221 -325 -294 -404 -686 -812 -1121 -1166 -195 -160 -578 -432 -765 -544 -10 -6 -41 -89 -81 -220 -36 -115 -121 -390 -189 -610 -125 -403 -276 -890 -424 -1370 -45 -143 -81 -266 -81 -272 0 -10 502 -13 2475 -13 l2475 0 0 5400 c0 2970 -3 5400 -7 5400 -5 0 -350 -241 -768 -535z"/>
 <path d="M7 4844 c-4 -4 -7 -1096 -7 -2426 l0 -2418 5516 0 c4717 0 5515 2 5511 14 -3 8 -217 301 -474 652 -258 352 -502 684 -543 739 -40 55 -76 104 -80 108 -4 4 -74 -13 -156 -38 -682 -212 -1515 -317 -2271 -287 -863 34 -1618 211 -2343 547 -969 449 -1825 1193 -2494 2165 -58 85 -116 167 -129 182 -18 22 -62 38 -267 98 -255 74 -488 143 -795 235 -99 30 -463 138 -810 241 -347 103 -635 188 -641 191 -5 2 -13 0 -17 -3z"/>
 </g>

</svg>